<?xml version="1.0" encoding="utf-8"?>
<!-- Generator: Adobe Illustrator 24.0.3, SVG Export Plug-In . SVG Version: 6.00 Build 0)  -->
<svg version="1.1" id="Layer_1" xmlns="http://www.w3.org/2000/svg" xmlns:xlink="http://www.w3.org/1999/xlink" x="0px" y="0px"
	 viewBox="0 0 864 864" style="enable-background:new 0 0 864 864;" xml:space="preserve">
<style type="text/css">
	.st0{fill:#CBC0BE;}
	.st1{fill:#156E6F;}
	.st2{fill:#83892C;}
	.st3{fill:#4FB0BE;}
	.st4{fill:#06414D;}
	.st5{fill:#FECF34;}
	.st6{fill:#E35033;}
	.st7{fill:#C7CB3B;}
</style>
<path class="st0" d="M634.5,196.7C634.5,196.7,634.5,196.7,634.5,196.7c0,18.1,0.2,36.1,0,54.2c0,19.3,4.4,25.7,26.8,25.7
	c18.3,1,36.8,1.3,55.1,0.4c21.7,0,29.1-4,29.1-25.3c-0.1-36.5-0.1-73,0-109.4c0-16.6-6.1-25.3-26.6-25.3
	c-18.8-1.3-37.8-0.6-56.7-0.6c-24.8,0-27.7,13.9-27.8,30.4C634.5,163.4,634.5,180,634.5,196.7z"/>
<path class="st1" d="M137,480.2c22.5,0.6,97.2,0.6,119.1,11.6c4.2,2.1,8.1,5,11.6,8.1c6.3,5.7,8.3,13.2,5.2,21.1
	C270,547,204,556,178,564c-23,13-32.3,87.6-64,93c-41,8-49-28-61-62c-13-37-8.1-68.2,12.9-93.4c6.6-7.9,16.1-12.1,25.8-15.2
	C105.9,481.8,120.5,480.3,137,480.2z"/>
<path class="st2" d="M574.7,517.2c-77.9,0.1-143.5-6.8-207.5-19c-5.6-1.1-11-2.7-16.4-4.1c-15.9-4.3-22-13.2-15.7-23
	c13.5-21,33.8-39.5,58.7-56.2c38-25.5,81.7-47.2,128.3-66.8c19.7-8.3,39.1-17.4,63.7-20.5c8.1-1.1,17-3.1,23.4,1.3
	c6.3,4.3,5.8,10.1,2.3,14.9c-8.8,11.9-17.7,23.9-28.4,35.3c-13.2,14.1-28.4,27.5-42.2,41.4c-5,5-8.7,10.5-12.5,15.9
	c-3.5,5.1-1.5,9.7,4.4,14.2c11.1,8.5,26.2,13.2,41.9,17.8c25.8,7.5,51.4,15.2,76.9,23.1c5.6,1.7,10.6,4.4,15.1,7.1
	c8.5,5.2,6.9,10.5-4.8,12.8c-10.9,2.1-22.5,3.4-34,4C606.6,516.4,585.4,516.8,574.7,517.2z"/>
<path class="st3" d="M289.9,203.8c-1.3-0.5-2.6-0.8-3.8-0.8c-2.7,0-5.2,1.2-7.6,3.7c-2.1,2.2-3.1,2.3-3.1,2.3
	c-20.1,1-40.5,1.8-60.2,2.6l-5.9,0.2l2.5-2c11.2-9,21.9-17.5,32.7-26c0.5-0.4,1.6-0.8,2.6-0.8c0,0,0.3,0,0.3,0
	c5.2,0,8.6-2.6,9.2-6.9c0.6-4.3-2.3-8.4-6.5-9.3c-0.5-0.1-1.1-0.2-1.6-0.2c-3.6,0-6.5,2.6-7.9,7.2c-0.4,1.4-1.3,2.8-2.1,3.5
	c-4.1,3.5-8.4,6.9-12.6,10.3l-2.1,1.7c-4.6,3.6-9.1,7.2-13.7,10.8c6-11.1,12.2-22.5,18.4-33.7c0.3-0.5,1.1-1.2,2.2-1.7
	c6.8-3,6.6-7.6,5.8-10.1c-1.1-3.7-4.2-6.1-7.8-6.1c-0.6,0-1.3,0.1-1.9,0.2c-2.5,0.6-6.5,2.8-5.9,10.1c0.1,1.6-0.1,3.4-0.7,4.5
	c-2.8,5.5-5.9,11.1-8.8,16.5c-0.8,1.5-3.4,6.2-3.8,7c0.4-1.7,0.8-3.4,1.2-5c3-12.8,6-25.7,9-38.5l0.1-0.5c0.9-3.9,1.4-5.8,4.3-7.1
	c2.3-1,3.9-3,4.6-5.6c0.7-3,0-6.3-2-8.8c-1.9-2.4-4.8-3.8-7.8-3.8c-2.1,0-4.1,0.7-5.8,1.9c-2.4,1.8-3.9,4.4-4.2,7.3
	c-0.2,2.6,0.6,5.1,2.5,7.1c1.1,1.2,1.3,1.9,0.8,3.8c-3.6,15-7.2,30.3-10.6,45c-1.4,6-2.8,12-4.2,18c-0.4,1.5-0.7,3-1.1,4.6l-8-13.8
	c-8.9-15.3-18.1-31.1-27.3-46.6c-0.8-1.3-0.8-2.1-0.1-3.7c1.2-2.6,1.2-5.4,0-8c-1.2-2.6-3.5-4.6-6.2-5.4c-0.9-0.3-1.8-0.4-2.7-0.4
	c-4.6,0-8.8,3.3-9.8,7.7c-0.7,3,0,6.2,1.9,8.6c1.7,2.2,4.1,3.5,6.7,3.6c1.6,0,2.1,0.4,3.3,2.5c5.2,9.1,10.6,18.4,15.8,27.4
	c2.7,4.7,5.5,9.4,8.2,14.1c1.9,3.4,3.9,6.7,5.8,10.2c-9.5-6.9-42.5-30.9-42.5-30.9c-0.7-0.5-1.4-1-2.1-1.4c-3.9-2.6-6.1-4.3-5.9-8.1
	c0-0.8-0.2-1.4-0.3-1.6c-1.5-3.6-5.3-6.2-9.2-6.2c-1,0-2,0.2-2.9,0.5c-5.1,1.8-8,7.6-6.3,12.6c1.4,4.2,5.1,7.1,9.2,7.1
	c1.1,0,2.3-0.2,3.3-0.7c0.5-0.2,0.9-0.3,1.3-0.3c0.7,0,1.4,0.3,2.5,1.1c12.9,9.4,25.8,18.7,38.7,28c5.4,3.9,10.7,7.8,16.1,11.6
	l-6.6,0.3c-20.1,0.8-40.8,1.7-61.3,2.4c-0.4,0-1.5-0.5-2.6-1.5c-2-1.8-4.2-3.8-7.4-3.8c-1,0-2,0.2-3,0.6c-4.6,1.8-7.1,5.2-6.9,9.8
	c0.2,4.5,2.7,7.9,6.9,9.3c1.1,0.4,2.2,0.5,3.2,0.5c2.2,0,5.3-0.8,7.8-4.6c1-1.4,1.4-1.7,2.4-1.7c8.6-0.2,17.3-0.6,25.7-1l6.6-0.3
	c9.9-0.4,19.8-0.9,29.7-1.3l4.9-0.2l-33.9,26.9c-1.8,1.4-2.8,2.2-4.3,2.2c-0.3,0-0.6,0-0.9-0.1c-0.4-0.1-0.8-0.1-1.2-0.1
	c-3.9,0-7.4,3.6-7.5,7.8c-0.2,4.4,3.1,8.1,7.5,8.5c0.2,0,0.4,0,0.6,0c3.7,0,6.8-2.7,8-6.8c0.5-1.8,1.4-3.3,2.3-4
	c9-7.4,18.3-14.8,27.3-21.9l0.6-0.5c-6.6,12.7-13.1,24.5-18.3,34c-0.3,0.5-1.9,1.2-2.5,1.5c-4.7,2.2-6.7,6.3-5.2,10.3
	c1.4,3.6,4.1,5.7,7.6,5.7c0.5,0,1,0,1.5-0.1c4.3-0.7,6.8-4.5,6.5-9.9c-0.1-2,0.1-3.8,0.7-4.8c4-7.6,8.2-15.3,12.3-22.9
	c-2.6,11.6-5.3,23.1-8,34.4l-2.3,9.8c-0.8,3.5-1.4,5.1-3.9,6.2c-2.4,1.1-4.1,3.1-4.8,5.7c-0.8,2.9-0.1,6,1.7,8.6
	c1.9,2.7,5,4.2,8.2,4.2c1.9,0,3.8-0.6,5.3-1.6c2.5-1.7,4.2-4.4,4.5-7.2c0.3-2.7-0.5-5.3-2.3-7.4c-1.1-1.2-1.3-2.2-0.9-4
	c3.1-13,6.1-26,9.2-39l3.3-14.3c1.1-4.7,3.4-14.5,3.4-14.5l4.3,7.4c10.2,17.6,20.8,35.7,31,53.7c0.2,0.4,0.3,1.9-0.1,3.3
	c-0.9,3.1-0.7,6.2,0.7,8.7c1.2,2.3,3.3,4,5.9,4.7c0.9,0.3,1.8,0.4,2.7,0.4c4.8,0,9-3.5,9.9-8.2c0.5-2.9-0.2-5.9-2.1-8.2
	c-1.8-2.2-4.5-3.6-7.4-3.6c-1,0-1.3-0.2-2.2-1.7c-6-10.3-12-20.7-17.9-31c-3.7-6.3-7.3-12.6-11-18.9c-0.4-0.6-0.7-1.2-1-1.8
	c13.6,9.5,27.1,19.2,40.2,28.7l6.5,4.7c2.2,1.6,3.1,2.6,3.2,4.9c0.1,5,4.5,9.2,9.7,9.2c0.6,0,1.2-0.1,1.8-0.2c2.7-0.6,5-2.1,6.5-4.5
	c1.5-2.3,1.9-5,1.3-7.6c-1.1-4.6-4.9-7.8-9.4-7.8c-1.2,0-2.4,0.2-3.5,0.7c-0.4,0.2-0.8,0.3-1.2,0.3c-0.6,0-1.2-0.3-2.3-1.1
	c-9.9-7.2-19.8-14.4-29.7-21.6c-5.9-4.2-11.7-8.5-17.6-12.7c-2.4-1.7-4.8-3.5-7.3-5.3l4-0.2c22.2-0.9,43.2-1.8,64.4-2.6
	c0.2,0.1,0.7,0.4,1.1,0.9c1.6,1.9,4.1,4.4,8,4.4c0.7,0,1.5-0.1,2.2-0.3c4.6-1.1,7.6-4.5,7.8-9.2C296.4,209.2,294,205.5,289.9,203.8z
	"/>
<path class="st0" d="M784.1,705.2c-1.3-9.7-5.1-22.6-22.4-23c-2.8-0.1-5.5-0.1-8.3-0.1c-14.1,0-28.9,0.8-45,2.6
	c-10.3,1.1-20.3,3.2-30.9,5.4c-0.9,0.2-1.8,0.4-2.8,0.6l8.2-22.2c7.8-21.1,16.7-49.2,16.7-79.9c0-13.4-5.8-22.2-16-24.2
	c-1.6-0.3-3.3-0.5-5.1-0.5c-7.4,0-15.3,2.6-20.1,6.7c-17.9,15.4-24.6,34.6-19.6,56.9c3.4,15.6,6.2,31.2,9.1,47.7
	c0.6,3.1,1.1,6.3,1.7,9.4l-1-0.4c-22.5-9.8-41.9-14.9-60.9-15.9c-0.5,0-1.1,0-1.6,0c-12.1,0-22.7,7.2-24.7,16.7
	c-3.1,15.1,3.6,27.1,16.9,30.5c11.5,3,23.7,4.5,35.2,4.5l1.7,0c9.6-0.1,19.3-1.5,28.6-2.9c0.6-0.1,1.1-0.2,1.7-0.2
	c-0.3,0.9-0.5,1.8-0.7,2.7c-0.6,3-1.2,6.1-1.9,9.1c-2.5,12-5.1,24.5-6.7,37c-1.6,12.5,6.7,24.2,18.5,26.1c1.6,0.3,3.2,0.4,4.8,0.4
	c7,0,13.4-2.6,17.9-7.3c4.9-5,7.4-12.2,7-20.2c-0.4-9.3-2.3-18.5-4.1-27.3c-0.4-2.1-0.9-4.2-1.3-6.3c-1-4.9-2.2-9.8-3.4-14.8
	c3.4,1.3,6.7,2.6,10.1,3.9c13.5,5.2,27.5,10.6,41.7,15c5.9,1.8,11.8,2.7,17.7,2.7c8.3,0,16.4-1.8,23.9-5.5
	C780.7,726.7,785.8,717.6,784.1,705.2z"/>
<g>
	<path class="st4" d="M603.4,188c0-26.4,0.1-52.8,0-79.1c-0.1-15.6,5.7-25,20.9-28.8c9.4-2.4,19.6-2.7,29.4-2.8
		c23.7-0.4,47.4-0.1,71.1-0.1c9.2,0,18,1.4,26.1,6.1c8.8,5,13.6,12,13.5,22.8c-0.2,52.9-0.1,105.9,0,158.8
		c0,20.7-9.6,31.5-30.4,33.7c-4.2,0.4-8.5,0.4-12.7,0.4c-26.6,0.1-53.1,0.1-79.7,0.1c-10,0-19.3-1.9-27.6-7.8
		c-7-4.9-10.7-11.4-10.6-20.2C603.5,243.3,603.3,215.6,603.4,188C603.4,188,603.4,188,603.4,188z M634.5,196.7
		C634.5,196.7,634.5,196.7,634.5,196.7c0,18.1,0.2,36.1,0,54.2c0,19.3,4.4,25.7,26.8,25.7c18.3,1,36.8,1.3,55.1,0.4
		c21.7,0,29.1-4,29.1-25.3c-0.1-36.5-0.1-73,0-109.4c0-16.6-6.1-25.3-26.6-25.3c-18.8-1.3-37.8-0.6-56.7-0.6
		c-24.8,0-27.7,13.9-27.8,30.4C634.5,163.4,634.5,180,634.5,196.7z"/>
	<path class="st5" d="M706.5,268c-15.7,0.1-27.7-11-27.8-25.8c-0.2-15.4,11.6-26.7,27.9-26.8c15.9,0,27.8,11.2,27.8,26.4
		C734.4,257,722.6,268,706.5,268z"/>
</g>
<path class="st6" d="M422.9,83.8c26.4,0,52.8,0.1,79.1,0c15.6,0,25,3.2,28.8,11.9c2.4,5.4,2.7,11.2,2.8,16.8
	c0.4,13.6,0.1,27.1,0.1,40.7c0,5.2-1.4,10.3-6.1,14.9c-5,5-12,7.8-22.8,7.7c-52.9-0.1-105.9-0.1-158.8,0c-20.7,0-31.5-5.5-33.7-17.4
	c-0.4-2.4-0.4-4.8-0.4-7.3c-0.1-15.2-0.1-30.4-0.1-45.5c0-5.7,1.9-11.1,7.8-15.8c4.9-4,11.4-6.1,20.2-6.1
	C367.7,83.9,395.3,83.8,422.9,83.8C422.9,83.8,422.9,83.8,422.9,83.8z M414.3,101.6C414.3,101.6,414.3,101.6,414.3,101.6
	c-18.1,0-36.1,0.1-54.2,0c-19.3,0-25.7,2.5-25.7,15.3c-1,10.5-1.3,21-0.4,31.5c0,12.4,4,16.7,25.3,16.7c36.5,0,73-0.1,109.4,0
	c16.6,0,25.3-3.5,25.3-15.2c1.3-10.8,0.6-21.6,0.6-32.4c0-14.2-13.9-15.9-30.4-15.9C447.6,101.6,430.9,101.6,414.3,101.6z"/>
<path class="st7" d="M287,707c-108.8,0-197,27.5-197,61.5S178.2,830,287,830s197-27.5,197-61.5S395.8,707,287,707z M311,814
	c-75.7,0-137-17.2-137-38.5S235.3,737,311,737s137,17.2,137,38.5S386.7,814,311,814z"/>
</svg>
