<?xml version="1.0" encoding="utf-8"?>
<!-- Generator: Adobe Illustrator 16.0.0, SVG Export Plug-In . SVG Version: 6.00 Build 0)  -->
<!DOCTYPE svg PUBLIC "-//W3C//DTD SVG 1.1//EN" "http://www.w3.org/Graphics/SVG/1.1/DTD/svg11.dtd">
<svg version="1.1" id="Layer_1" xmlns="http://www.w3.org/2000/svg" xmlns:xlink="http://www.w3.org/1999/xlink" x="0px" y="0px"
	 width="864px" height="864px" viewBox="0 0 864 864" enable-background="new 0 0 864 864" xml:space="preserve">
<g id="Layer_1_1_">
	<g>
		
			<line id="score" fill="none" stroke="#EC2227" stroke-width="1.103" stroke-miterlimit="10" x1="431.55" y1="199.068" x2="431.55" y2="673.553"/>
		<g>
			<g>
				<g id="cut">
					<g>
						<path fill="#8DC63F" stroke="#010101" stroke-width="1.103" stroke-miterlimit="10" d="M431.551,673.553
							c0,6.627,5.372,12,17,12H784.55c1.629,0,7-5.373,7-12v-480c0-6.627-5.371-12-12-12H443.551c-6.628,0-12,5.373-12,12"/>
					</g>
				</g>
			</g>
		</g>
		<path fill="#8DC63F" stroke="#010101" stroke-width="1.103" stroke-miterlimit="10" d="M431.55,199.068v-5.517
			c0-6.627-5.371-12-12-12H83.551c-6.628,0-12,5.373-12,12v480c0,6.627,5.372,12,12,12H419.55c6.629,0,12-5.373,12-12"/>
	</g>
</g>
<path fill="#F15A29" d="M688.999,440c6-27-41-49-87-70c0,0,146,30,145,71s-178,69-178,69C582.999,506,682.999,467,688.999,440z"/>
<polygon fill="#FBB040" points="714.616,306.73 758.021,302.243 714.618,297.756 732.054,277.096 710.709,294.948 706.791,241.274 
	702.873,294.946 681.53,277.096 698.966,297.756 655.562,302.243 698.968,306.73 681.53,327.39 702.873,309.541 706.791,363.214 
	710.709,309.54 732.054,327.392 "/>
<g id="Layer_4">
	<ellipse cx="652.5" cy="432" rx="3.5" ry="231"/>
</g>
<path fill="#F15A29" d="M622.004,293c-6,27,41,49,87,70c0,0-146-30-145-71s178-69,178-69C728.004,227,628.004,266,622.004,293z"/>
<path fill="#F15A29" d="M622.004,584c-6-27,41-49,87-70c0,0-146,30-145,71s178,69,178,69C728.004,650,628.004,611,622.004,584z"/>
<polygon fill="#FBB040" points="612.082,437.73 655.486,433.243 612.084,428.756 629.52,408.096 608.175,425.948 604.257,372.274 
	600.339,425.946 578.996,408.096 596.432,428.756 553.027,433.243 596.434,437.73 578.996,458.39 600.339,440.541 604.257,494.214 
	608.175,440.539 629.52,458.392 "/>
<polygon fill="#FBB040" points="714.616,579.475 758.021,574.987 714.618,570.5 732.054,549.84 710.709,567.691 706.791,514.019 
	702.873,567.69 681.53,549.84 698.966,570.5 655.562,574.987 698.968,579.475 681.53,600.134 702.873,582.285 706.791,635.958 
	710.709,582.283 732.054,600.136 "/>
<line fill="#F31B00" x1="431.5" y1="183.5" x2="431.5" y2="692.5"/>
</svg>
