<svg width="864" height="864" viewBox="0 0 864 864" fill="none" xmlns="http://www.w3.org/2000/svg">
<g id="32066ff6-2abf-41ac-ac78-ba90a5355431 1">
<path id="Vector" d="M634.5 196.7C634.5 214.8 634.7 232.8 634.5 250.9C634.5 270.2 638.9 276.6 661.3 276.6C679.6 277.6 698.1 277.9 716.4 277C738.1 277 745.5 273 745.5 251.7C745.4 215.2 745.4 178.7 745.5 142.3C745.5 125.7 739.4 117 718.9 117C700.1 115.7 681.1 116.4 662.2 116.4C637.4 116.4 634.5 130.3 634.4 146.8C634.5 163.4 634.5 180 634.5 196.7Z" fill="#CBC0BE"/>
<path id="Vector_2" d="M137 480.2C159.5 480.8 234.2 480.8 256.1 491.8C260.3 493.9 264.2 496.8 267.7 499.9C274 505.6 276 513.1 272.9 521C270 547 204 556 178 564C155 577 145.7 651.6 114 657C73 665 65 629 53 595C40 558 44.9 526.8 65.9 501.6C72.5 493.7 82 489.5 91.7 486.4C105.9 481.8 120.5 480.3 137 480.2Z" fill="#156E6F"/>
<path id="Vector_3" d="M574.7 517.2C496.8 517.3 431.2 510.4 367.2 498.2C361.6 497.1 356.2 495.5 350.8 494.1C334.9 489.8 328.8 480.9 335.1 471.1C348.6 450.1 368.9 431.6 393.8 414.9C431.8 389.4 475.5 367.7 522.1 348.1C541.8 339.8 561.2 330.7 585.8 327.6C593.9 326.5 602.8 324.5 609.2 328.9C615.5 333.2 615 339 611.5 343.8C602.7 355.7 593.8 367.7 583.1 379.1C569.9 393.2 554.7 406.6 540.9 420.5C535.9 425.5 532.2 431 528.4 436.4C524.9 441.5 526.9 446.1 532.8 450.6C543.9 459.1 559 463.8 574.7 468.4C600.5 475.9 626.1 483.6 651.6 491.5C657.2 493.2 662.2 495.9 666.7 498.6C675.2 503.8 673.6 509.1 661.9 511.4C651 513.5 639.4 514.8 627.9 515.4C606.6 516.4 585.4 516.8 574.7 517.2Z" fill="#83892C"/>
<path id="Star" d="M289.9 203.8C288.6 203.3 287.3 203 286.1 203C283.4 203 280.9 204.2 278.5 206.7C276.4 208.9 275.4 209 275.4 209C255.3 210 234.9 210.8 215.2 211.6L209.3 211.8L211.8 209.8C223 200.8 233.7 192.3 244.5 183.8C245 183.4 246.1 183 247.1 183H247.4C252.6 183 256 180.4 256.6 176.1C257.2 171.8 254.3 167.7 250.1 166.8C249.6 166.7 249 166.6 248.5 166.6C244.9 166.6 242 169.2 240.6 173.8C240.2 175.2 239.3 176.6 238.5 177.3C234.4 180.8 230.1 184.2 225.9 187.6L223.8 189.3C219.2 192.9 214.7 196.5 210.1 200.1C216.1 189 222.3 177.6 228.5 166.4C228.8 165.9 229.6 165.2 230.7 164.7C237.5 161.7 237.3 157.1 236.5 154.6C235.4 150.9 232.3 148.5 228.7 148.5C228.1 148.5 227.4 148.6 226.8 148.7C224.3 149.3 220.3 151.5 220.9 158.8C221 160.4 220.8 162.2 220.2 163.3C217.4 168.8 214.3 174.4 211.4 179.8C210.6 181.3 208 186 207.6 186.8C208 185.1 208.4 183.4 208.8 181.8C211.8 169 214.8 156.1 217.8 143.3L217.9 142.8C218.8 138.9 219.3 137 222.2 135.7C224.5 134.7 226.1 132.7 226.8 130.1C227.5 127.1 226.8 123.8 224.8 121.3C222.9 118.9 220 117.5 217 117.5C214.9 117.5 212.9 118.2 211.2 119.4C208.8 121.2 207.3 123.8 207 126.7C206.8 129.3 207.6 131.8 209.5 133.8C210.6 135 210.8 135.7 210.3 137.6C206.7 152.6 203.1 167.9 199.7 182.6C198.3 188.6 196.9 194.6 195.5 200.6C195.1 202.1 194.8 203.6 194.4 205.2L186.4 191.4C177.5 176.1 168.3 160.3 159.1 144.8C158.3 143.5 158.3 142.7 159 141.1C160.2 138.5 160.2 135.7 159 133.1C157.8 130.5 155.5 128.5 152.8 127.7C151.9 127.4 151 127.3 150.1 127.3C145.5 127.3 141.3 130.6 140.3 135C139.6 138 140.3 141.2 142.2 143.6C143.9 145.8 146.3 147.1 148.9 147.2C150.5 147.2 151 147.6 152.2 149.7C157.4 158.8 162.8 168.1 168 177.1C170.7 181.8 173.5 186.5 176.2 191.2C178.1 194.6 180.1 197.9 182 201.4C172.5 194.5 139.5 170.5 139.5 170.5C138.8 170 138.1 169.5 137.4 169.1C133.5 166.5 131.3 164.8 131.5 161C131.5 160.2 131.3 159.6 131.2 159.4C129.7 155.8 125.9 153.2 122 153.2C121 153.2 120 153.4 119.1 153.7C114 155.5 111.1 161.3 112.8 166.3C114.2 170.5 117.9 173.4 122 173.4C123.1 173.4 124.3 173.2 125.3 172.7C125.8 172.5 126.2 172.4 126.6 172.4C127.3 172.4 128 172.7 129.1 173.5C142 182.9 154.9 192.2 167.8 201.5C173.2 205.4 178.5 209.3 183.9 213.1L177.3 213.4C157.2 214.2 136.5 215.1 116 215.8C115.6 215.8 114.5 215.3 113.4 214.3C111.4 212.5 109.2 210.5 106 210.5C105 210.5 104 210.7 103 211.1C98.4 212.9 95.9 216.3 96.1 220.9C96.3 225.4 98.8 228.8 103 230.2C104.1 230.6 105.2 230.7 106.2 230.7C108.4 230.7 111.5 229.9 114 226.1C115 224.7 115.4 224.4 116.4 224.4C125 224.2 133.7 223.8 142.1 223.4L148.7 223.1C158.6 222.7 168.5 222.2 178.4 221.8L183.3 221.6L149.4 248.5C147.6 249.9 146.6 250.7 145.1 250.7C144.8 250.7 144.5 250.7 144.2 250.6C143.8 250.5 143.4 250.5 143 250.5C139.1 250.5 135.6 254.1 135.5 258.3C135.3 262.7 138.6 266.4 143 266.8C143.2 266.8 143.4 266.8 143.6 266.8C147.3 266.8 150.4 264.1 151.6 260C152.1 258.2 153 256.7 153.9 256C162.9 248.6 172.2 241.2 181.2 234.1L181.8 233.6C175.2 246.3 168.7 258.1 163.5 267.6C163.2 268.1 161.6 268.8 161 269.1C156.3 271.3 154.3 275.4 155.8 279.4C157.2 283 159.9 285.1 163.4 285.1C163.9 285.1 164.4 285.1 164.9 285C169.2 284.3 171.7 280.5 171.4 275.1C171.3 273.1 171.5 271.3 172.1 270.3C176.1 262.7 180.3 255 184.4 247.4C181.8 259 179.1 270.5 176.4 281.8L174.1 291.6C173.3 295.1 172.7 296.7 170.2 297.8C167.8 298.9 166.1 300.9 165.4 303.5C164.6 306.4 165.3 309.5 167.1 312.1C169 314.8 172.1 316.3 175.3 316.3C177.2 316.3 179.1 315.7 180.6 314.7C183.1 313 184.8 310.3 185.1 307.5C185.4 304.8 184.6 302.2 182.8 300.1C181.7 298.9 181.5 297.9 181.9 296.1C185 283.1 188 270.1 191.1 257.1L194.4 242.8C195.5 238.1 197.8 228.3 197.8 228.3L202.1 235.7C212.3 253.3 222.9 271.4 233.1 289.4C233.3 289.8 233.4 291.3 233 292.7C232.1 295.8 232.3 298.9 233.7 301.4C234.9 303.7 237 305.4 239.6 306.1C240.5 306.4 241.4 306.5 242.3 306.5C247.1 306.5 251.3 303 252.2 298.3C252.7 295.4 252 292.4 250.1 290.1C248.3 287.9 245.6 286.5 242.7 286.5C241.7 286.5 241.4 286.3 240.5 284.8C234.5 274.5 228.5 264.1 222.6 253.8C218.9 247.5 215.3 241.2 211.6 234.9C211.2 234.3 210.9 233.7 210.6 233.1C224.2 242.6 237.7 252.3 250.8 261.8L257.3 266.5C259.5 268.1 260.4 269.1 260.5 271.4C260.6 276.4 265 280.6 270.2 280.6C270.8 280.6 271.4 280.5 272 280.4C274.7 279.8 277 278.3 278.5 275.9C280 273.6 280.4 270.9 279.8 268.3C278.7 263.7 274.9 260.5 270.4 260.5C269.2 260.5 268 260.7 266.9 261.2C266.5 261.4 266.1 261.5 265.7 261.5C265.1 261.5 264.5 261.2 263.4 260.4C253.5 253.2 243.6 246 233.7 238.8C227.8 234.6 222 230.3 216.1 226.1C213.7 224.4 211.3 222.6 208.8 220.8L212.8 220.6C235 219.7 256 218.8 277.2 218C277.4 218.1 277.9 218.4 278.3 218.9C279.9 220.8 282.4 223.3 286.3 223.3C287 223.3 287.8 223.2 288.5 223C293.1 221.9 296.1 218.5 296.3 213.8C296.4 209.2 294 205.5 289.9 203.8Z" fill="#4FB0BE"/>
<path id="Prop" d="M784.1 705.2C782.8 695.5 779 682.6 761.7 682.2C758.9 682.1 756.2 682.1 753.4 682.1C739.3 682.1 724.5 682.9 708.4 684.7C698.1 685.8 688.1 687.9 677.5 690.1C676.6 690.3 675.7 690.5 674.7 690.7L682.9 668.5C690.7 647.4 699.6 619.3 699.6 588.6C699.6 575.2 693.8 566.4 683.6 564.4C682 564.1 680.3 563.9 678.5 563.9C671.1 563.9 663.2 566.5 658.4 570.6C640.5 586 633.8 605.2 638.8 627.5C642.2 643.1 645 658.7 647.9 675.2C648.5 678.3 649 681.5 649.6 684.6L648.6 684.2C626.1 674.4 606.7 669.3 587.7 668.3C587.2 668.3 586.6 668.3 586.1 668.3C574 668.3 563.4 675.5 561.4 685C558.3 700.1 565 712.1 578.3 715.5C589.8 718.5 602 720 613.5 720H615.2C624.8 719.9 634.5 718.5 643.8 717.1C644.4 717 644.9 716.9 645.5 716.9C645.2 717.8 645 718.7 644.8 719.6C644.2 722.6 643.6 725.7 642.9 728.7C640.4 740.7 637.8 753.2 636.2 765.7C634.6 778.2 642.9 789.9 654.7 791.8C656.3 792.1 657.9 792.2 659.5 792.2C666.5 792.2 672.9 789.6 677.4 784.9C682.3 779.9 684.8 772.7 684.4 764.7C684 755.4 682.1 746.2 680.3 737.4C679.9 735.3 679.4 733.2 679 731.1C678 726.2 676.8 721.3 675.6 716.3C679 717.6 682.3 718.9 685.7 720.2C699.2 725.4 713.2 730.8 727.4 735.2C733.3 737 739.2 737.9 745.1 737.9C753.4 737.9 761.5 736.1 769 732.4C780.7 726.7 785.8 717.6 784.1 705.2Z" fill="#CBC0BE"/>
<g id="Square-ball">
<path id="Vector_4" d="M603.4 188C603.4 161.6 603.5 135.2 603.4 108.9C603.3 93.3 609.1 83.9 624.3 80.1C633.7 77.7 643.9 77.4 653.7 77.3C677.4 76.9 701.1 77.2 724.8 77.2C734 77.2 742.8 78.6 750.9 83.3C759.7 88.3 764.5 95.3 764.4 106.1C764.2 159 764.3 212 764.4 264.9C764.4 285.6 754.8 296.4 734 298.6C729.8 299 725.5 299 721.3 299C694.7 299.1 668.2 299.1 641.6 299.1C631.6 299.1 622.3 297.2 614 291.3C607 286.4 603.3 279.9 603.4 271.1C603.5 243.3 603.3 215.6 603.4 188ZM634.5 196.7C634.5 214.8 634.7 232.8 634.5 250.9C634.5 270.2 638.9 276.6 661.3 276.6C679.6 277.6 698.1 277.9 716.4 277C738.1 277 745.5 273 745.5 251.7C745.4 215.2 745.4 178.7 745.5 142.3C745.5 125.7 739.4 117 718.9 117C700.1 115.7 681.1 116.4 662.2 116.4C637.4 116.4 634.5 130.3 634.4 146.8C634.5 163.4 634.5 180 634.5 196.7Z" fill="#06414D"/>
<path id="Vector_5" d="M706.5 268C690.8 268.1 678.8 257 678.7 242.2C678.5 226.8 690.3 215.5 706.6 215.4C722.5 215.4 734.4 226.6 734.4 241.8C734.4 257 722.6 268 706.5 268Z" fill="#FECF34"/>
</g>
<path id="Vector_6" d="M422.9 83.8C449.3 83.8 475.7 83.9 502 83.8C517.6 83.8 527 87 530.8 95.7C533.2 101.1 533.5 106.9 533.6 112.5C534 126.1 533.7 139.6 533.7 153.2C533.7 158.4 532.3 163.5 527.6 168.1C522.6 173.1 515.6 175.9 504.8 175.8C451.9 175.7 398.9 175.7 346 175.8C325.3 175.8 314.5 170.3 312.3 158.4C311.9 156 311.9 153.6 311.9 151.1C311.8 135.9 311.8 120.7 311.8 105.6C311.8 99.9 313.7 94.5 319.6 89.8C324.5 85.8 331 83.7 339.8 83.7C367.7 83.9 395.3 83.8 422.9 83.8ZM414.3 101.6C396.2 101.6 378.2 101.7 360.1 101.6C340.8 101.6 334.4 104.1 334.4 116.9C333.4 127.4 333.1 137.9 334 148.4C334 160.8 338 165.1 359.3 165.1C395.8 165.1 432.3 165 468.7 165.1C485.3 165.1 494 161.6 494 149.9C495.3 139.1 494.6 128.3 494.6 117.5C494.6 103.3 480.7 101.6 464.2 101.6C447.6 101.6 430.9 101.6 414.3 101.6Z" fill="#E35033"/>
<path id="Vector_7" d="M287 707C178.2 707 90 734.5 90 768.5C90 802.5 178.2 830 287 830C395.8 830 484 802.5 484 768.5C484 734.5 395.8 707 287 707ZM311 814C235.3 814 174 796.8 174 775.5C174 754.2 235.3 737 311 737C386.7 737 448 754.2 448 775.5C448 796.8 386.7 814 311 814Z" fill="#C7CB3B"/>
</g>
</svg>
