<svg width="512" height="512" viewBox="0 0 512 512" fill="none" xmlns="http://www.w3.org/2000/svg">
<g id="cooking-stew-svgrepo-com 1">
<path id="Vector" d="M498.831 304.505V315.284C498.831 324.213 491.592 331.452 482.663 331.452H19.168C10.239 331.452 3 324.213 3 315.284V304.505C3 295.576 10.239 288.337 19.168 288.337H482.663C491.592 288.337 498.831 295.576 498.831 304.505ZM197.695 155.604L305.075 146.21L302.256 113.996C301.218 102.136 290.762 93.362 278.901 94.399L214.473 100.035C202.612 101.073 193.839 111.529 194.876 123.39L197.695 155.604Z" fill="#5B7A7F"/>
<path id="Vector_2" d="M436.89 274.409L425.404 392.035C420.97 437.43 383.668 472 339.117 472H170.883C126.333 472 89.0298 437.43 84.596 392.035L73.1097 274.409C71.8335 261.34 81.8557 250 94.6815 250H415.318C428.144 250 438.166 261.34 436.89 274.409Z" fill="#769CA5"/>
<path id="lid" d="M455.897 115.435C457.181 142.733 446.321 166.797 431.64 169.187L102.012 222.808C87.3308 225.196 74.3883 205.004 73.103 177.706C72.588 166.766 74.0288 156.348 76.8798 147.632C81.9894 163.244 91.5572 172.998 102.012 171.297L431.64 117.676C440.437 116.245 447.858 107.026 452.121 94C454.188 100.312 455.528 107.575 455.897 115.435Z" fill="#769CA5"/>
<path id="Vector_3" d="M363.789 245.221C369.742 245.221 374.568 250.047 374.568 256V342.232C374.568 354.399 364.489 364.212 352.224 363.776C340.542 363.361 331.452 353.404 331.452 341.716V328.546C327.713 330.711 323.278 331.81 318.547 331.35C307.425 330.268 299.115 320.581 299.115 309.405V256C299.115 250.047 303.941 245.221 309.894 245.221H331.452H342.231H363.789Z" fill="#FFA233"/>
<path id="Vector_4" d="M344.926 83.537V8.084C344.926 3.618 348.544 0 353.01 0C357.476 0 361.094 3.618 361.094 8.084V83.537C361.094 88.003 357.476 91.621 353.01 91.621C348.545 91.621 344.926 88.003 344.926 83.537ZM385.347 91.621C389.813 91.621 393.431 88.003 393.431 83.537V8.084C393.431 3.618 389.813 0 385.347 0C380.881 0 377.263 3.618 377.263 8.084V83.537C377.263 88.003 380.882 91.621 385.347 91.621ZM512 304.505V315.284C512 328.656 501.12 339.537 487.747 339.537H460.8C456.334 339.537 452.716 335.919 452.716 331.453C452.716 326.987 456.334 323.369 460.8 323.369H487.747C492.205 323.369 495.831 319.743 495.831 315.285V304.506C495.831 300.048 492.205 296.422 487.747 296.422H443.324L433.494 394.732C428.652 443.151 388.305 479.664 339.646 479.664H172.354C123.694 479.664 83.348 443.151 78.506 394.732L68.676 296.422H24.253C19.795 296.422 16.169 300.048 16.169 304.506V315.285C16.169 319.743 19.795 323.369 24.253 323.369H51.2C55.666 323.369 59.284 326.987 59.284 331.453C59.284 335.919 55.666 339.537 51.2 339.537H24.253C10.88 339.537 0 328.657 0 315.284V304.505C0 291.133 10.88 280.252 24.253 280.252H67.06C66.309 272.02 69.05 263.802 74.601 257.668C80.209 251.47 88.22 247.915 96.579 247.915H266.779C271.245 247.915 274.863 251.533 274.863 255.999C274.863 260.465 271.245 264.083 266.779 264.083H96.579C92.724 264.083 89.176 265.658 86.589 268.515C84.002 271.374 82.788 275.061 83.172 278.897L94.594 393.121C98.605 433.239 132.035 463.492 172.353 463.492H339.643C379.962 463.492 413.391 433.239 417.403 393.121L427.955 287.602C427.96 287.547 427.966 287.493 427.972 287.439L428.826 278.897C429.21 275.061 427.996 271.374 425.409 268.515C422.823 265.658 419.275 264.083 415.419 264.083H382.651V342.23C382.651 350.347 379.435 357.923 373.592 363.56C367.752 369.196 360.075 372.125 351.935 371.852C335.915 371.283 323.366 358.043 323.366 341.713V339.413C321.52 339.583 319.644 339.577 317.764 339.394C302.521 337.91 291.029 325.016 291.029 309.403V256C291.029 245.599 299.492 237.137 309.892 237.137H363.787C371.298 237.137 377.796 241.549 380.83 247.916H415.42C423.779 247.916 431.79 251.471 437.398 257.669C442.949 263.802 445.69 272.021 444.939 280.253H487.745C501.12 280.253 512 291.133 512 304.505ZM366.484 256C366.484 254.514 365.276 253.305 363.789 253.305H309.894C308.408 253.305 307.199 254.513 307.199 256V309.404C307.199 316.535 312.528 322.641 319.331 323.303C322.155 323.576 324.945 322.971 327.4 321.549C328.653 320.824 330.053 320.46 331.452 320.46C332.846 320.46 334.239 320.82 335.49 321.54C337.993 322.984 339.536 325.653 339.536 328.544V341.714C339.536 349.169 345.357 355.441 352.511 355.696C356.217 355.817 359.711 354.49 362.365 351.928C365.021 349.365 366.484 345.921 366.484 342.231V256V256ZM450.021 495.832H51.2C46.734 495.832 43.116 499.45 43.116 503.916C43.116 508.382 46.734 512 51.2 512H450.021C454.487 512 458.105 508.382 458.105 503.916C458.105 499.45 454.487 495.832 450.021 495.832ZM56.542 184.629C55.727 175.306 58.59 166.225 64.605 159.057C70.62 151.889 79.066 147.492 88.388 146.676L193.083 137.516L191.908 124.094C190.484 107.812 202.572 93.406 218.854 91.981L283.281 86.345C299.534 84.929 313.969 97.009 315.394 113.29L316.568 126.713L421.264 117.553C440.506 115.866 457.531 130.156 459.216 149.398C460.9 168.642 446.613 185.665 427.371 187.351L94.494 216.474C93.461 216.565 92.433 216.609 91.414 216.609C73.466 216.609 58.137 202.839 56.542 184.629ZM72.649 183.219C73.088 188.238 75.456 192.786 79.316 196.025C83.176 199.263 88.07 200.804 93.084 200.365L425.961 171.242C436.322 170.335 444.015 161.167 443.108 150.806C442.201 140.445 433.049 132.762 422.672 133.659L256.703 148.18C252.258 148.57 248.334 145.279 247.945 140.831C247.557 136.384 250.846 132.462 255.294 132.073L300.46 128.121L299.285 114.698C298.636 107.296 292.092 101.807 284.688 102.451L220.261 108.087C216.676 108.401 213.427 110.091 211.114 112.848C208.801 115.605 207.7 119.098 208.014 122.684L209.188 136.106L222.957 134.901C227.393 134.524 231.326 137.803 231.715 142.25C232.103 146.697 228.814 150.619 224.366 151.008L202.603 152.913C202.584 152.914 202.564 152.916 202.544 152.918C202.525 152.919 202.506 152.921 202.486 152.922L89.795 162.782C84.776 163.221 80.228 165.589 76.989 169.449C73.75 173.31 72.21 178.2 72.649 183.219Z" fill="black"/>
</g>
</svg>
